<?xml version="1.0" encoding="utf-8"?>
<!-- Generator: Adobe Illustrator 15.1.0, SVG Export Plug-In  -->
<!DOCTYPE svg PUBLIC "-//W3C//DTD SVG 1.1//EN" "http://www.w3.org/Graphics/SVG/1.1/DTD/svg11.dtd" [
	<!ENTITY ns_flows "http://ns.adobe.com/Flows/1.0/">
]>
<svg version="1.1"
	 xmlns="http://www.w3.org/2000/svg" xmlns:xlink="http://www.w3.org/1999/xlink" xmlns:a="http://ns.adobe.com/AdobeSVGViewerExtensions/3.0/"
	 x="0px" y="0px" width="700px" height="400px" viewBox="-5.641 0.422 700 400" enable-background="new -5.641 0.422 700 400"
	 xml:space="preserve">
<defs>
</defs>
<g>
	<defs>
		<path id="SVGID_1_" d="M357.023,74.932c-40.278,6.809-80.5,3.888-119.194-0.355c-38.693-4.242-77.289-9.786-117.585-8.114
			c-25.92,1.07-54.786,6.208-72.89,21.138c-16.102,13.273-23.863,37.499-20.447,57.569c4.968,29.204,31.896,39.567,45.043,63.12
			c13.869,24.833,3.292,55.19-9.346,78.183c-11.878,21.604-33.893,49.67-25.014,76.133c8.841,26.324,44.506,33.245,68.266,35.806
			c37.353,4.033,75.165-0.265,112.174-5.504c94.978-13.432,188.974-34.386,282.768-55.281
			c34.701-7.735,69.559-15.514,102.987-26.661c18.572-6.208,37.473-13.933,49.466-25.966c15.241-15.238,15.623-36.074,0.938-48.529
			c-24.641-20.885-80.409-16.253-99.467-40.123c-10.486-13.145-5.921-30.997,2.426-46.765
			c17.898-33.817,52.484-67.228,48.007-100.941c-3.092-23.141-26.691-42.29-58.318-47.278c-33.149-5.225-75.725,4.685-94.812,27.971
			C432.401,53.324,392.591,68.905,357.023,74.932z"/>
	</defs>
	<clipPath id="SVGID_2_">
		<use xlink:href="#SVGID_1_"  overflow="visible"/>
	</clipPath>
	<path opacity="0.1" clip-path="url(#SVGID_2_)" fill="#FFFFFF" enable-background="new    " d="M357.023,74.932
		c-40.278,6.809-80.5,3.888-119.194-0.355c-38.693-4.242-77.289-9.786-117.585-8.114c-25.92,1.07-54.786,6.208-72.888,21.138
		c-17.422,14.355-20.137,33.73-20.168,51.218c-0.046,13.156,1.094,26.768,10.416,37.251c6.479,7.265,16.452,12.478,23.962,19.186
		c26.139,23.304,18.19,60.014,1.039,91.216c-8.048,14.635-17.889,29.031-23.369,44.018c-5.48,14.987-6.207,31.037,3.599,43.257
		c9.721,12.118,28.517,18.95,48.119,22.489c39.81,7.186,84.164,2.725,127.077-3.329c94.978-13.432,188.974-34.386,282.768-55.281
		c34.701-7.735,69.559-15.514,102.987-26.661c18.572-6.208,37.473-13.933,49.466-25.966c15.241-15.238,15.623-36.074,0.938-48.529
		c-24.641-20.885-80.409-16.253-99.467-40.123c-10.486-13.145-5.921-30.997,2.426-46.765
		c17.898-33.817,52.484-67.228,48.007-100.941c-3.092-23.141-26.691-42.29-58.318-47.278c-33.149-5.225-75.725,4.685-94.812,27.971
		C432.401,53.324,392.591,68.905,357.023,74.932z"/>
	<g id="dune_2_" clip-path="url(#SVGID_2_)">
		<path opacity="0.7" fill="#FFFFFF" d="M668.611,284.801c-4.876,0-12.068,0.711-17.975,0.048
			c-15.893-1.797-31.616-10.206-46.236-16.634c-20.204-8.872-40.886-15.869-62.42-20.673
			c-50.944-11.356-102.007-4.929-149.185,17.503c-14.34,6.813-29.345,16.607-44.555,19.729c-13.549,2.785-28.486,1.654-41.964,0.225
			c-33.107-3.498-63.224-11.814-96.103-19.304c-37.178-8.465-68.681-11.59-104.506,4.368c-19.312,8.604-37.95,18.399-56.231,28.567
			C34.78,306.783,16.593,320.973,0,322.055v78.367h668.611V284.801z"/>
		<linearGradient id="SVGID_3_" gradientUnits="userSpaceOnUse" x1="306.1343" y1="433.0063" x2="394.8317" y2="344.3089">
			<stop  offset="0" style="stop-color:#FFFFFF"/>
			<stop  offset="1" style="stop-color:#FFFFFF;stop-opacity:0"/>
		</linearGradient>
		<path fill="url(#SVGID_3_)" d="M135.672,400.194c0,0-1.039-13.635,4.52-20.874c8.86-11.55,26.482-14.854,40.231-19.157
			c13.19-4.125,95.337-16.864,82.266-41.743c-11.061-21.051-135.446-19.409-110.887-59.539l16.483,0.144
			c0,0,18.379-0.144,111.83,22.213c5.829,1.39,12.086,1.299,18.033,1.867c6.701,0.649,13.386,1.421,20.078,2.106
			c5.979,0.612,12.193,0.576,17.993,2.271c11.262,3.288,22.264,8.156,33.371,11.997c11.841,4.102,23.55,8.537,35.367,12.714
			c14.006,4.95,27.907,10.201,41.904,15.176c15.168,5.394,30.25,11.023,45.434,16.391c15.314,5.42,30.576,11.005,45.926,16.348
			c14.486,5.042,28.938,10.18,43.474,15.083c12.621,4.253,25.236,8.535,37.948,12.535c9.75,3.08,53.05,13.509,47.144,12.469
			C655.274,398.161,135.672,400.194,135.672,400.194z"/>
		<linearGradient id="SVGID_5_" gradientUnits="userSpaceOnUse" x1="495.6987" y1="410.6538" x2="617.0753" y2="288.6417">
			<stop  offset="0" style="stop-color:#FFFFFF"/>
			<stop  offset="1" style="stop-color:#FFFFFF;stop-opacity:0"/>
		</linearGradient>
		<path fill="url(#SVGID_5_)" d="M485.41,400.21c0,0,0.87-11.224,1.605-15.201c3.716-20,27.203-24.377,43.207-30.03
			c13.197-4.656,95.338-19.028,82.27-47.097c-11.061-23.746-136.128-20.577-111.568-65.839l17.941,1.644
			c33.845,6.586,40.431,5.906,106.757,33.617c5.574,2.328,21.792,6.854,27.74,7.497c6.701,0.727,15.249-0.874,15.249-0.874v116.267
			c-52.708,0-176.447-0.326-183.335,0.09C485.253,400.286,485.425,400.26,485.41,400.21z"/>
		<path opacity="0.7" fill="#FFFFFF" d="M306.284,285c13.475,1.43,28.421,2.561,41.969-0.225
			c15.211-3.122,30.228-12.916,44.568-19.729c3.495-1.666,7.016-3.229,10.553-4.711c-17.653-10.155-35.972-18.858-55.802-24.847
			c-23.877-7.204-42.467,4.94-62.667,17.51c-11.855,7.38-24.101,14.718-36.327,21.696C267.566,279.054,286.383,282.902,306.284,285z
			"/>
		<linearGradient id="SVGID_6_" gradientUnits="userSpaceOnUse" x1="323.9976" y1="260.2769" x2="403.3735" y2="260.2769">
			<stop  offset="0" style="stop-color:#FFFFFF"/>
			<stop  offset="1" style="stop-color:#FFFFFF;stop-opacity:0"/>
		</linearGradient>
		<path fill="url(#SVGID_6_)" d="M359.863,261.41c4.617,7.955-17.815,17.584-31.428,25.068c6.718,0.044,13.424-0.385,19.818-1.703
			c15.211-3.122,30.228-12.916,44.568-19.729c3.495-1.666,7.015-3.229,10.553-4.711l0,0c0,0-16.928-9.141-39.74-19.3
			c-22.81-10.159-32.617-6.204-32.617-6.204C306.294,257.904,354.398,251.994,359.863,261.41z"/>
	</g>
	<g opacity="0.6" clip-path="url(#SVGID_2_)" enable-background="new    ">
		<g>
			<path opacity="0.7" fill="#FFFFFF" d="M227.044,269.634c3.806,0.895,7.583,1.795,11.351,2.686
				C234.631,271.43,230.848,270.529,227.044,269.634z"/>
			<path opacity="0.7" fill="#FFFFFF" d="M218.963,267.731c0.821,0.188,1.644,0.384,2.464,0.573
				c1.115,0.261,2.227,0.529,3.337,0.789C222.836,268.635,220.908,268.18,218.963,267.731z"/>
			<path opacity="0.7" fill="#FFFFFF" d="M296.418,152.086l-38.565-50.537L135.695,259.868h0.007c1.446,0,2.887-0.064,4.329-0.274
				c0.128-0.019,0.258,0.178,0.391,0.157c2.91-0.405,5.814-0.598,8.714-0.806c0.146-0.011,0.295,0.121,0.439,0.111
				c2.904-0.198,5.808-0.168,8.716-0.168c0.124,0,0.245,0,0.365,0c1.372,0,2.745-0.069,4.121-0.031
				c0.102,0.003,0.2-0.038,0.304-0.035c1.475,0.044,2.957,0.087,4.438,0.173c0.031,0.002,0.063-0.006,0.094-0.005
				c1.389,0.084,2.785,0.183,4.183,0.291c0.203,0.018,0.404,0.031,0.606,0.051c2.861,0.243,5.742,0.564,8.639,0.945
				c0.255,0.034,0.515,0.068,0.774,0.097c1.334,0.184,2.673,0.369,4.017,0.579c0.104,0.016,0.206,0.03,0.31,0.045
				c1.444,0.221,2.899,0.465,4.355,0.713c0.279,0.048,0.558,0.099,0.837,0.147c1.214,0.209,2.434,0.435,3.654,0.66
				c0.294,0.057,0.584,0.111,0.877,0.167c1.436,0.272,2.876,0.554,4.328,0.848c0.239,0.049,0.482,0.104,0.725,0.154
				c1.229,0.25,2.459,0.515,3.699,0.779c0.392,0.086,0.784,0.171,1.176,0.252c1.454,0.323,2.909,0.645,4.38,0.978
				c-0.34-0.078-0.673-0.152-1.008-0.23L296.418,152.086z"/>
			<path opacity="0.7" fill="#FFFFFF" d="M357.242,238.667c1.058,0.374,2.103,0.751,3.144,1.138
				C359.344,239.417,358.299,239.039,357.242,238.667z"/>
			<path opacity="0.7" fill="#FFFFFF" d="M352.969,237.207c1.019,0.335,2.026,0.675,3.032,1.022
				C354.996,237.882,353.988,237.541,352.969,237.207z"/>
			<path opacity="0.7" fill="#FFFFFF" d="M361.351,240.16c1.351,0.512,2.703,1.033,4.04,1.56
				C364.054,241.193,362.702,240.671,361.351,240.16z"/>
			<path opacity="0.7" fill="#FFFFFF" d="M347.572,235.488c1.404,0.425,2.802,0.865,4.188,1.318
				C350.374,236.355,348.976,235.913,347.572,235.488z"/>
		</g>
		<g>
			<linearGradient id="SVGID_7_" gradientUnits="userSpaceOnUse" x1="324.7529" y1="234.3188" x2="324.511" y2="233.8969">
				<stop  offset="0" style="stop-color:#FFFFFF"/>
				<stop  offset="1" style="stop-color:#FFFFFF;stop-opacity:0"/>
			</linearGradient>
			<path fill="url(#SVGID_7_)" d="M324.024,234.25c0.417-0.074,0.832-0.15,1.251-0.222
				C324.856,234.099,324.44,234.175,324.024,234.25z"/>
			<linearGradient id="SVGID_8_" gradientUnits="userSpaceOnUse" x1="326.6772" y1="234.021" x2="326.4216" y2="233.575">
				<stop  offset="0" style="stop-color:#FFFFFF"/>
				<stop  offset="1" style="stop-color:#FFFFFF;stop-opacity:0"/>
			</linearGradient>
			<path fill="url(#SVGID_8_)" d="M325.967,233.914c0.399-0.063,0.8-0.12,1.203-0.166
				C326.767,233.793,326.366,233.85,325.967,233.914z"/>
			<linearGradient id="SVGID_9_" gradientUnits="userSpaceOnUse" x1="320.9819" y1="235.1255" x2="320.7636" y2="234.7447">
				<stop  offset="0" style="stop-color:#FFFFFF"/>
				<stop  offset="1" style="stop-color:#FFFFFF;stop-opacity:0"/>
			</linearGradient>
			<path fill="url(#SVGID_9_)" d="M320.193,235.138c0.463-0.128,0.929-0.237,1.391-0.352
				C321.123,234.901,320.657,235.01,320.193,235.138z"/>
			<linearGradient id="SVGID_10_" gradientUnits="userSpaceOnUse" x1="322.856" y1="234.689" x2="322.6255" y2="234.2871">
				<stop  offset="0" style="stop-color:#FFFFFF"/>
				<stop  offset="1" style="stop-color:#FFFFFF;stop-opacity:0"/>
			</linearGradient>
			<path fill="url(#SVGID_10_)" d="M322.1,234.66c0.436-0.096,0.875-0.19,1.316-0.283C322.975,234.469,322.536,234.564,322.1,234.66
				z"/>
			<linearGradient id="SVGID_11_" gradientUnits="userSpaceOnUse" x1="292.1353" y1="160.8384" x2="253.0743" y2="92.7089">
				<stop  offset="0" style="stop-color:#FFFFFF"/>
				<stop  offset="1" style="stop-color:#FFFFFF;stop-opacity:0"/>
			</linearGradient>
			<polygon fill="url(#SVGID_11_)" points="296.418,152.086 257.853,101.974 285.759,165.94 			"/>
			<linearGradient id="SVGID_12_" gradientUnits="userSpaceOnUse" x1="332.5854" y1="233.5757" x2="332.2891" y2="233.0587">
				<stop  offset="0" style="stop-color:#FFFFFF"/>
				<stop  offset="1" style="stop-color:#FFFFFF;stop-opacity:0"/>
			</linearGradient>
			<path fill="url(#SVGID_12_)" d="M333.008,233.343c-0.366,0.003-0.735,0.012-1.099,0.023
				C332.273,233.355,332.642,233.346,333.008,233.343z"/>
			<linearGradient id="SVGID_13_" gradientUnits="userSpaceOnUse" x1="319.1421" y1="235.6187" x2="318.9342" y2="235.2561">
				<stop  offset="0" style="stop-color:#FFFFFF"/>
				<stop  offset="1" style="stop-color:#FFFFFF;stop-opacity:0"/>
			</linearGradient>
			<path fill="url(#SVGID_13_)" d="M318.305,235.68c0.497-0.154,0.998-0.3,1.498-0.433
				C319.303,235.38,318.801,235.526,318.305,235.68z"/>
			<linearGradient id="SVGID_14_" gradientUnits="userSpaceOnUse" x1="330.5928" y1="233.6411" x2="330.3102" y2="233.1481">
				<stop  offset="0" style="stop-color:#FFFFFF"/>
				<stop  offset="1" style="stop-color:#FFFFFF;stop-opacity:0"/>
			</linearGradient>
			<path fill="url(#SVGID_14_)" d="M329.909,233.464c0.375-0.028,0.75-0.051,1.127-0.067
				C330.659,233.412,330.283,233.436,329.909,233.464z"/>
			<linearGradient id="SVGID_15_" gradientUnits="userSpaceOnUse" x1="317.3481" y1="236.1587" x2="317.1469" y2="235.8077">
				<stop  offset="0" style="stop-color:#FFFFFF"/>
				<stop  offset="1" style="stop-color:#FFFFFF;stop-opacity:0"/>
			</linearGradient>
			<path fill="url(#SVGID_15_)" d="M316.44,236.275L316.44,236.275c0.547-0.182,1.095-0.359,1.645-0.532
				C317.535,235.916,316.987,236.093,316.44,236.275z"/>
			<linearGradient id="SVGID_16_" gradientUnits="userSpaceOnUse" x1="328.6216" y1="233.7896" x2="328.356" y2="233.3263">
				<stop  offset="0" style="stop-color:#FFFFFF"/>
				<stop  offset="1" style="stop-color:#FFFFFF;stop-opacity:0"/>
			</linearGradient>
			<path fill="url(#SVGID_16_)" d="M327.928,233.654c0.386-0.045,0.773-0.086,1.161-0.122
				C328.701,233.568,328.313,233.609,327.928,233.654z"/>
			<linearGradient id="SVGID_17_" gradientUnits="userSpaceOnUse" x1="342.9683" y1="234.5444" x2="342.6383" y2="233.969">
				<stop  offset="0" style="stop-color:#FFFFFF"/>
				<stop  offset="1" style="stop-color:#FFFFFF;stop-opacity:0"/>
			</linearGradient>
			<path fill="url(#SVGID_17_)" d="M343.267,234.385c-0.293-0.064-0.583-0.114-0.879-0.172
				C342.684,234.271,342.974,234.321,343.267,234.385z"/>
			<linearGradient id="SVGID_18_" gradientUnits="userSpaceOnUse" x1="364.1772" y1="242.3462" x2="362.2841" y2="239.0441">
				<stop  offset="0" style="stop-color:#FFFFFF"/>
				<stop  offset="1" style="stop-color:#FFFFFF;stop-opacity:0"/>
			</linearGradient>
			<path fill="url(#SVGID_18_)" d="M361.351,240.16c1.351,0.512,2.703,1.033,4.04,1.56
				C364.054,241.193,362.702,240.671,361.351,240.16z"/>
			<linearGradient id="SVGID_19_" gradientUnits="userSpaceOnUse" x1="359.4253" y1="240.3022" x2="357.989" y2="237.7971">
				<stop  offset="0" style="stop-color:#FFFFFF"/>
				<stop  offset="1" style="stop-color:#FFFFFF;stop-opacity:0"/>
			</linearGradient>
			<path fill="url(#SVGID_19_)" d="M357.242,238.667c1.058,0.374,2.103,0.751,3.144,1.138
				C359.344,239.417,358.299,239.039,357.242,238.667z"/>
			<linearGradient id="SVGID_20_" gradientUnits="userSpaceOnUse" x1="350.4399" y1="237.4966" x2="348.6226" y2="234.3269">
				<stop  offset="0" style="stop-color:#FFFFFF"/>
				<stop  offset="1" style="stop-color:#FFFFFF;stop-opacity:0"/>
			</linearGradient>
			<path fill="url(#SVGID_20_)" d="M347.572,235.488c1.404,0.425,2.802,0.865,4.188,1.318
				C350.374,236.355,348.976,235.913,347.572,235.488z"/>
			<linearGradient id="SVGID_21_" gradientUnits="userSpaceOnUse" x1="334.6035" y1="233.5913" x2="334.2945" y2="233.0523">
				<stop  offset="0" style="stop-color:#FFFFFF"/>
				<stop  offset="1" style="stop-color:#FFFFFF;stop-opacity:0"/>
			</linearGradient>
			<path fill="url(#SVGID_21_)" d="M335.003,233.373c-0.355-0.014-0.71-0.02-1.063-0.023
				C334.293,233.353,334.648,233.359,335.003,233.373z"/>
			<linearGradient id="SVGID_22_" gradientUnits="userSpaceOnUse" x1="355.0601" y1="238.7202" x2="353.7112" y2="236.3676">
				<stop  offset="0" style="stop-color:#FFFFFF"/>
				<stop  offset="1" style="stop-color:#FFFFFF;stop-opacity:0"/>
			</linearGradient>
			<path fill="url(#SVGID_22_)" d="M352.969,237.207c1.019,0.335,2.026,0.675,3.032,1.022
				C354.996,237.882,353.988,237.541,352.969,237.207z"/>
			<linearGradient id="SVGID_23_" gradientUnits="userSpaceOnUse" x1="336.6489" y1="233.6851" x2="336.3283" y2="233.1259">
				<stop  offset="0" style="stop-color:#FFFFFF"/>
				<stop  offset="1" style="stop-color:#FFFFFF;stop-opacity:0"/>
			</linearGradient>
			<path fill="url(#SVGID_23_)" d="M337.029,233.479c-0.345-0.027-0.688-0.045-1.034-0.064
				C336.342,233.433,336.685,233.452,337.029,233.479z"/>
			<linearGradient id="SVGID_24_" gradientUnits="userSpaceOnUse" x1="338.7241" y1="233.8813" x2="338.3931" y2="233.304">
				<stop  offset="0" style="stop-color:#FFFFFF"/>
				<stop  offset="1" style="stop-color:#FFFFFF;stop-opacity:0"/>
			</linearGradient>
			<path fill="url(#SVGID_24_)" d="M339.081,233.689c-0.336-0.041-0.665-0.072-0.996-0.106
				C338.416,233.617,338.745,233.648,339.081,233.689z"/>
			<linearGradient id="SVGID_25_" gradientUnits="userSpaceOnUse" x1="345.1655" y1="235.0142" x2="344.8757" y2="234.5087">
				<stop  offset="0" style="stop-color:#FFFFFF"/>
				<stop  offset="1" style="stop-color:#FFFFFF;stop-opacity:0"/>
			</linearGradient>
			<path fill="url(#SVGID_25_)" d="M345.408,234.886c-0.249-0.063-0.485-0.114-0.732-0.174
				C344.922,234.772,345.159,234.823,345.408,234.886z"/>
			<linearGradient id="SVGID_26_" gradientUnits="userSpaceOnUse" x1="340.8281" y1="234.1646" x2="340.4938" y2="233.5814">
				<stop  offset="0" style="stop-color:#FFFFFF"/>
				<stop  offset="1" style="stop-color:#FFFFFF;stop-opacity:0"/>
			</linearGradient>
			<path fill="url(#SVGID_26_)" d="M341.158,233.988c-0.316-0.054-0.63-0.097-0.944-0.144
				C340.528,233.891,340.841,233.934,341.158,233.988z"/>
		</g>
	</g>
	<g clip-path="url(#SVGID_2_)">
		<linearGradient id="SVGID_27_" gradientUnits="userSpaceOnUse" x1="200.1396" y1="211.0649" x2="255.1196" y2="211.0649">
			<stop  offset="0" style="stop-color:#FFFFFF"/>
			<stop  offset="1" style="stop-color:#FFFFFF;stop-opacity:0"/>
		</linearGradient>
		<path opacity="0.5" fill="url(#SVGID_27_)" d="M202.138,205.208c-1.105,0-1.999,1.334-1.999,2.435
			c0,1.109,0.893,2.442,1.999,2.442h34.229c-1.104,0-1.996,0.361-1.996,1.462c0,1.109,0.892,1.471,1.996,1.471h-6.844
			c-1.106,0-1.998,0.849-1.998,1.952c0,1.102,0.892,1.952,1.998,1.952h16.507l9.089-11.714H202.138z"/>
		<linearGradient id="SVGID_28_" gradientUnits="userSpaceOnUse" x1="191.2446" y1="207.2935" x2="195.2383" y2="207.2935">
			<stop  offset="0" style="stop-color:#FFFFFF"/>
			<stop  offset="1" style="stop-color:#FFFFFF;stop-opacity:0"/>
		</linearGradient>
		<path opacity="0.5" fill="url(#SVGID_28_)" d="M193.24,205.296c-1.102,0-1.996,0.896-1.996,1.997c0,1.104,0.894,1.998,1.996,1.998
			c1.106,0,1.998-0.895,1.998-1.998C195.238,206.193,194.346,205.296,193.24,205.296z"/>
	</g>
</g>
<path fill="none" d="M248.578,274.694c12.226-6.979,24.472-14.316,36.327-21.696c20.201-12.569,38.88-24.714,62.759-17.51
	c6.914,2.09,13.481,4.516,20.318,7.21V58.794h-0.4l-153.45,207.575C225.808,269.065,237.287,272.096,248.578,274.694z"/>
<path fill="none" d="M209.123,265.203L367.799,58.794H187.405V261.21C195.214,262.337,201.701,263.524,209.123,265.203z"/>
<path opacity="0.5" fill="#FFFFFF" d="M210.177,265.696c13.116,2.985,25.797,6.101,38.401,8.998
	c12.226-6.979,24.472-14.316,36.327-21.696c20.201-12.569,38.79-24.951,62.667-17.739c19.83,5.981,38.148,14.849,55.802,24.609
	h-0.004c33.845-14.645,69.489-20.079,105.517-17.445L367.799,59.21L209.168,265.414
	C209.503,265.483,209.837,265.618,210.177,265.696z"/>
<path fill="#FFFFFF" d="M388.334,203.254h-33.661c1.102,0,1.997-0.85,1.997-1.954c0-1.102-0.896-1.952-1.997-1.952h6.276
	c1.102,0,1.998-0.361,1.998-1.462c0-1.105-0.896-1.466-1.998-1.466h-57.051c-1.104,0-1.998,0.361-1.998,1.466
	c0,1.102,0.893,1.462,1.998,1.462h34.228c-1.102,0-1.994,0.851-1.994,1.952c0,1.104,0.892,1.954,1.994,1.954h-6.843
	c-1.106,0-1.998,1.335-1.998,2.436c0,1.109,0.892,2.442,1.998,2.442h57.051c1.102,0,1.998-1.333,1.998-2.442
	C390.333,204.589,389.436,203.254,388.334,203.254z"/>
<path fill="#FFFFFF" d="M367.982,155.425c0,1.08-0.876,1.952-1.952,1.952h-20.501c-1.076,0-1.951-0.872-1.951-1.952l0,0
	c0-1.076,0.875-1.952,1.951-1.952h20.501C367.106,153.473,367.982,154.349,367.982,155.425L367.982,155.425z"/>
<path fill="#FFFFFF" d="M363.633,241.102c0.117,0.053,0.226,0.217,0.343,0.217h28.826c2.006,0,3.632-0.696,3.632-1.952
	s-1.626-1.952-3.632-1.952h-31.929c-1.751,0-3.208,0.422-3.551,1.451C359.305,239.61,361.408,240.106,363.633,241.102z"/>
<path fill="#FFFFFF" d="M376.896,155.024c0,1.32-1.065,2.386-2.386,2.386c-1.317,0-2.385-1.065-2.385-2.386
	c0-1.316,1.067-2.386,2.385-2.386C375.831,152.638,376.896,153.708,376.896,155.024z"/>
<path fill="#FFFFFF" d="M405.974,238.613c0,1.319-1.074,2.386-2.387,2.386c-1.318,0-2.384-1.066-2.384-2.386
	c0-1.31,1.065-2.386,2.384-2.386C404.9,236.227,405.974,237.303,405.974,238.613z"/>
<path fill="#FFFFFF" d="M367.792,199.348h6.276c1.103,0,1.997-0.361,1.997-1.462c0-1.105-0.895-1.466-1.997-1.466h-6.276
	c-1.102,0-1.997,0.361-1.997,1.466C365.794,198.987,366.69,199.348,367.792,199.348z"/>
<circle fill="#FFFFFF" cx="295.912" cy="197.303" r="1.997"/>
<path fill="#FFFFFF" d="M396.317,203.295c-1.103,0-1.998,0.891-1.998,1.99c0,1.109,0.896,1.997,1.998,1.997s1.997-0.888,1.997-1.997
	C398.314,204.186,397.419,203.295,396.317,203.295z"/>
<linearGradient id="SVGID_29_" gradientUnits="userSpaceOnUse" x1="474.105" y1="235.1401" x2="382.1739" y2="64.078">
	<stop  offset="0" style="stop-color:#FFFFFF"/>
	<stop  offset="0.9313" style="stop-color:#FFFFFF;stop-opacity:0.0687"/>
	<stop  offset="1" style="stop-color:#FFFFFF;stop-opacity:0"/>
</linearGradient>
<path fill="url(#SVGID_29_)" d="M508.886,242.66L367.799,59.325l81.546,186.942C468.91,242.422,488.837,241.195,508.886,242.66z"/>
</svg>
